<svg xmlns="http://www.w3.org/2000/svg" viewBox="0 0 120 120" role="img" aria-label="Marta, a warm woman in her seventies">
  <rect x="0" y="0" width="120" height="120" fill="#e6ede4"/>
  <ellipse cx="60" cy="8" rx="76" ry="48" fill="#f6e6cf" opacity=".5"/>
  <path d="M14 120 C18 92 38 82 60 82 C82 82 102 92 106 120 Z" fill="#7d9b86" stroke="var(--ink,#2a2420)" stroke-width="2" stroke-linejoin="round"/>
  <path d="M52 84 L60 96 L68 84" fill="none" stroke="var(--ink,#2a2420)" stroke-width="1.6" stroke-linecap="round" stroke-linejoin="round"/>
  <path d="M53 74 h14 v10 a7 7 0 0 1 -14 0 Z" fill="#f0cdb4" stroke="var(--ink,#2a2420)" stroke-width="2" stroke-linejoin="round"/>
  <path d="M30 58 C28 34 43 20 60 20 C77 20 92 34 90 58 C90 66 87 72 84 74 C86 56 79 42 60 42 C41 42 34 56 36 74 C33 72 30 66 30 58 Z" fill="#c4bdb0" stroke="var(--ink,#2a2420)" stroke-width="2" stroke-linejoin="round"/>
  <ellipse cx="60" cy="56" rx="24" ry="27" fill="#f3d3ba" stroke="var(--ink,#2a2420)" stroke-width="2"/>
  <circle cx="46" cy="63" r="4.5" fill="#eab89b" opacity=".55"/>
  <circle cx="74" cy="63" r="4.5" fill="#eab89b" opacity=".55"/>
  <path d="M36 52 C35 34 47 26 60 26 C73 26 85 34 84 52 C79 44 71 41 60 41 C49 41 41 44 36 52 Z" fill="#bcb4a4" stroke="var(--ink,#2a2420)" stroke-width="2" stroke-linejoin="round"/>
  <g fill="none" stroke="var(--ink,#2a2420)" stroke-width="1.8">
    <circle cx="49" cy="55" r="8"/><circle cx="71" cy="55" r="8"/>
    <path d="M57 55 h6" stroke-linecap="round"/><path d="M41 53 l-6 -2" stroke-linecap="round"/><path d="M79 53 l6 -2" stroke-linecap="round"/>
  </g>
  <circle cx="49" cy="55" r="2.4" fill="#3f7bb0"/><circle cx="71" cy="55" r="2.4" fill="#3f7bb0"/>
  <circle cx="49" cy="55" r="1" fill="#2a2420"/><circle cx="71" cy="55" r="1" fill="#2a2420"/>
  <path d="M43 46 q6 -3 12 0" fill="none" stroke="#9a917f" stroke-width="1.8" stroke-linecap="round"/>
  <path d="M65 46 q6 -3 12 0" fill="none" stroke="#9a917f" stroke-width="1.8" stroke-linecap="round"/>
  <path d="M60 57 q-2 6 -3 8 q3 2 6 0" fill="none" stroke="#d9a789" stroke-width="1.6" stroke-linecap="round"/>
  <path d="M50 70 q10 8 20 0" fill="none" stroke="#b5654a" stroke-width="2.2" stroke-linecap="round"/>
</svg>
